<svg xmlns="http://www.w3.org/2000/svg" width="2032.245" height="1083.042" viewBox="0 0 2032.245 1083.042">
        <g id="Group_3172" data-name="Group 3172" transform="translate(4495.551 4236)">
          <g id="Group_3171" data-name="Group 3171" transform="translate(-4495.551 -4236)">
            <g id="Group_3170" data-name="Group 3170" transform="translate(0 0)">
              <g id="Rectangle_6820" data-name="Rectangle 6820">
                <rect width="2030.703" height="1083.042" stroke="none"/>
                <rect x="0.5" y="0.5" width="2029.703" height="1082.042" fill="none"/>
              </g>
              <path id="Path_12" data-name="Path 12" d="M173.9,1.932H189.87L-2.551,258.7V238.888Z" transform="translate(2.551 -1.931)" fill="#ff9100" opacity="0.395"/>
              <g id="Path_13" data-name="Path 13" transform="translate(4.093 247.671)" fill="#ff9100" opacity="0.569">
                <path d="M -2.051259517669678 158.4534454345703 L -2.051259517669678 154.5639343261719 L 299.7172241210938 -247.1708831787109 L 302.2828369140625 -247.1708831787109 L -2.051259517669678 158.4534454345703 Z" stroke="none"/>
                <path d="M 299.9669799804688 -246.6709289550781 L -1.55126953125 154.7307891845703 L -1.55126953125 156.9538116455078 L 301.2825927734375 -246.6709289550781 L 299.9669799804688 -246.6709289550781 M 299.4674072265625 -247.6709289550781 L 303.2830505371094 -247.6709289550781 L -2.55126953125 159.9529113769531 L -2.55126953125 154.3970184326172 L 299.4674072265625 -247.6709289550781 Z" stroke="none" fill="#707070"/>
              </g>
              <path id="Path_14" data-name="Path 14" d="M436.255-247.671h3.816L343.2-118.132v-5.556Z" transform="translate(-199.214 249.683)" fill="#ff9100" opacity="0.569"/>
              <path id="Path_16" data-name="Path 16" d="M-285.809-462.972l.918,38.783L75.736,75.2h29.8Z" transform="translate(287.351 1007.839)" fill="#ff9100" opacity="0.41"/>
              <path id="Path_20" data-name="Path 20" d="M3.1-6,86.277-24.083-1.034,49.737Z" transform="translate(443.75 468.603)" fill="#383636"/>
              <path id="Path_21" data-name="Path 21" d="M26.43,0,42.35,77.743,0,114.227Z" transform="translate(362.151 437.57) rotate(-45)" fill="#3c3b3b"/>
              <path id="Path_22" data-name="Path 22" d="M25.693,0l18.15,83.107L0,149.3Z" transform="translate(530.077 418.83) rotate(90)" fill="#414040"/>
              <path id="Path_23" data-name="Path 23" d="M4.138,18.081,87.311,0,0,73.82Z" transform="matrix(0.978, -0.208, 0.208, 0.978, 563.171, 527.515)" fill="#383636"/>
              <path id="Path_24" data-name="Path 24" d="M26.43,0,42.35,77.743,0,114.227Z" transform="matrix(0.545, -0.839, 0.839, 0.545, 482.923, 537.466)" fill="#3c3b3b"/>
              <path id="Path_25" data-name="Path 25" d="M25.693,0l18.15,83.107L0,149.3Z" transform="translate(643.282 484.222) rotate(78)" fill="#414040"/>
              <path id="Polygon_3" data-name="Polygon 3" d="M253.233,0,506.467,359.6H0Z" transform="translate(575.095 407.35)" fill="#ff9100" opacity="0.297"/>
              <g id="Polygon_4" data-name="Polygon 4" transform="translate(1655.402 949.337) rotate(180)" fill="none" opacity="0.297">
                <path d="M637.314,0l637.315,933.879H0Z" stroke="none"/>
                <path d="M 637.3145141601563 35.4808349609375 L 37.8621826171875 913.8786010742188 L 1236.766723632813 913.8786010742188 L 637.3145141601563 35.4808349609375 M 637.314453125 6.103515625e-05 L 1274.628784179688 933.8786010742188 L -0.0001220703125 933.8786010742188 L 637.314453125 6.103515625e-05 Z" stroke="none" fill="#ff9101"/>
              </g>
              <path id="Path_27" data-name="Path 27" d="M110.7-90.1H266.628L155.929,62.265H0Z" transform="translate(1300.95 90.096)" fill="#ff9100" opacity="0.557"/>
              <path id="Path_28" data-name="Path 28" d="M299.467-247.671h3.816L-2.551,159.953V154.4Z" transform="translate(1728.962 834.822)" fill="#ff9100" opacity="0.569"/>
              <path id="Path_29" data-name="Path 29" d="M203.631-247.671h2.592L.073,32.222V28.548Z" transform="translate(1826.022 871.689)" fill="#ff9100" opacity="0.569"/>
              <path id="Path_30" data-name="Path 30" d="M203.631-247.671h2.592L.073,32.222V28.548Z" transform="translate(1826.022 994.982)" fill="#ff9100" opacity="0.569"/>
              <g id="Path_31" data-name="Path 31" transform="translate(1835.51 494.841)" fill="#ff9100" opacity="0.467">
                <path d="M -2.051269769668579 241.8572998046875 L -2.051269769668579 223.7149200439453 L 195.2103729248047 -35.36580657958984 L 195.2103729248047 -21.65204048156738 L -2.051269769668579 241.8572998046875 Z" stroke="none"/>
                <path d="M 194.7103729248047 -33.88374328613281 L -1.55126953125 223.8835906982422 L -1.55126953125 240.3550567626953 L 194.7103729248047 -21.81842041015625 L 194.7103729248047 -33.88374328613281 M 195.7103729248047 -36.847900390625 L 195.7103729248047 -21.48558044433594 L -2.55126953125 243.3595581054688 L -2.55126953125 223.5462036132813 L 195.7103729248047 -36.847900390625 Z" stroke="none" fill="#707070"/>
              </g>
              <path id="Path_32" data-name="Path 32" d="M195.71-36.848v15.362L-2.551,243.36V223.546Z" transform="translate(1054.052 36.848)" fill="#ff9100" opacity="0.467"/>
            </g>
          </g>
        </g>
      </svg>